<?xml version="1.0" encoding="utf-8"?>
<!-- Generator: Adobe Illustrator 23.0.1, SVG Export Plug-In . SVG Version: 6.00 Build 0)  -->
<svg version="1.1" id="Layer_1" xmlns="http://www.w3.org/2000/svg" xmlns:xlink="http://www.w3.org/1999/xlink" x="0px" y="0px"
	 viewBox="0 0 16 16" style="enable-background:new 0 0 16 16;" xml:space="preserve">
<style type="text/css">
	.st0{fill:none;}
	.st1{fill:#00C08B;}
	.st2{fill:#323E48;}
</style>
<rect x="2.58" y="7.04" class="st0" width="5.32" height="3.78"/>
<rect x="2.58" y="1.51" class="st0" width="4.01" height="5.07"/>
<path class="st1" d="M2.58,7.04H7.9v3.78h0.46V7.04V6.61V6.57h-1.3V1.51V1.05H6.6H2.58H2.14H2.12v9.77h0.46V7.04z M2.58,1.51H6.6
	v5.07H2.58V1.51z"/>
<polygon class="st2" points="2.14,15.05 2.58,15.05 8.36,15.05 8.36,14.82 8.36,14.59 8.36,10.81 7.9,10.81 7.9,14.59 2.58,14.59 
	2.58,10.81 2.12,10.81 2.12,15.05 "/>
<polygon class="st1" points="10.36,7.99 13.88,0.95 13.32,0.95 9.8,7.99 11.19,10.78 11.75,10.78 "/>
<polygon class="st2" points="13.88,15.04 11.75,10.78 11.19,10.78 13.32,15.04 "/>
</svg>
