<svg xmlns="http://www.w3.org/2000/svg" viewBox="0 0 1188.1 413.13"><defs><style>.cls-1,.cls-2,.cls-3{fill:none;}.cls-1{stroke:#00c08b;}.cls-1,.cls-2{stroke-miterlimit:10;stroke-width:2px;}.cls-2{stroke:#fff;}.cls-4{fill:#00c08b;}.cls-5{fill:#fff;}</style></defs><title>Hero Image</title><g id="Layer_2" data-name="Layer 2"><g id="Layer_1-2" data-name="Layer 1"><rect class="cls-1" x="718.52" y="347.82" width="32.25" height="45.11"/><rect class="cls-1" x="636.91" y="392.93" width="195.47" height="18.01"/><rect class="cls-2" x="512.98" y="1" width="443.33" height="346.82"/><rect class="cls-2" x="532.2" y="18.9" width="404.89" height="311.02"/><rect class="cls-2" x="568.49" y="50.85" width="332.31" height="246.3"/><rect class="cls-1" x="568.49" y="50.85" width="332.31" height="18.24"/><circle class="cls-1" cx="580.87" cy="59.96" r="3.45"/><circle class="cls-1" cx="594.88" cy="59.96" r="3.45"/><circle class="cls-1" cx="608.89" cy="59.96" r="3.45"/><path class="cls-1" d="M513,174.41V347.82H956.31V174.41"/><polyline class="cls-1" points="937.09 174.41 937.09 329.92 532.2 329.92 532.2 174.41"/><polyline class="cls-1" points="568.49 174.41 568.49 50.85 900.8 50.85 900.8 174"/><rect class="cls-1" x="396.49" y="69.97" width="76.11" height="136.27" rx="38.05"/><rect class="cls-1" x="430.54" y="89.3" width="8.02" height="22.15" rx="4.01"/><rect class="cls-2" x="192.47" y="131.84" width="178.6" height="378.63" transform="translate(-39.38 602.92) rotate(-90)"/><rect class="cls-2" x="113.05" y="374.71" width="16.52" height="20.41"/><rect class="cls-2" x="141.27" y="374.71" width="16.52" height="20.41"/><rect class="cls-2" x="169.5" y="374.71" width="16.52" height="20.41"/><rect class="cls-2" x="199.09" y="374.71" width="164.12" height="20.41"/><rect class="cls-2" x="376.29" y="374.71" width="16.52" height="20.41"/><rect class="cls-2" x="404.51" y="374.71" width="16.52" height="20.41"/><rect class="cls-2" x="432.74" y="374.71" width="16.52" height="20.41"/><rect class="cls-2" x="113.05" y="343.99" width="60.54" height="20.85"/><rect class="cls-1" x="113.05" y="311.94" width="44.75" height="20.85"/><rect class="cls-2" x="385.51" y="343.99" width="62.99" height="20.85"/><rect class="cls-1" x="401.86" y="311.94" width="46.64" height="20.85"/><rect class="cls-1" x="169.89" y="311.94" width="20.85" height="20.85"/><rect class="cls-1" x="202.84" y="311.94" width="20.85" height="20.85"/><rect class="cls-1" x="235.79" y="311.94" width="20.85" height="20.85"/><rect class="cls-1" x="268.73" y="311.94" width="20.85" height="20.85"/><rect class="cls-1" x="301.68" y="311.94" width="20.85" height="20.85"/><rect class="cls-1" x="334.62" y="311.94" width="20.85" height="20.85"/><rect class="cls-1" x="367.57" y="311.94" width="20.85" height="20.85"/><rect class="cls-2" x="185.89" y="343.99" width="20.85" height="20.85"/><rect class="cls-2" x="218.84" y="343.99" width="20.85" height="20.85"/><rect class="cls-2" x="251.79" y="343.99" width="20.85" height="20.85"/><rect class="cls-2" x="284.73" y="343.99" width="20.85" height="20.85"/><rect class="cls-2" x="317.68" y="343.99" width="20.85" height="20.85"/><rect class="cls-2" x="350.62" y="343.99" width="20.85" height="20.85"/><rect class="cls-1" x="113.05" y="279.1" width="31.09" height="20.85"/><rect class="cls-1" x="154.89" y="279.1" width="20.85" height="20.85"/><rect class="cls-1" x="187.84" y="279.1" width="20.85" height="20.85"/><rect class="cls-1" x="220.79" y="279.1" width="20.85" height="20.85"/><rect class="cls-1" x="253.73" y="279.1" width="20.85" height="20.85"/><rect class="cls-1" x="286.68" y="279.1" width="20.85" height="20.85"/><rect class="cls-1" x="319.62" y="279.1" width="20.85" height="20.85"/><rect class="cls-1" x="352.57" y="279.1" width="20.85" height="20.85"/><rect class="cls-1" x="385.51" y="279.1" width="20.85" height="20.85"/><rect class="cls-1" x="417.41" y="279.1" width="31.09" height="20.85"/><rect class="cls-1" x="137.84" y="248.1" width="20.85" height="20.85"/><rect class="cls-1" x="170.79" y="248.1" width="20.85" height="20.85"/><rect class="cls-1" x="203.73" y="248.1" width="20.85" height="20.85"/><rect class="cls-1" x="236.68" y="248.1" width="20.85" height="20.85"/><rect class="cls-1" x="269.62" y="248.1" width="20.85" height="20.85"/><rect class="cls-1" x="302.57" y="248.1" width="20.85" height="20.85"/><rect class="cls-1" x="335.51" y="248.1" width="20.85" height="20.85"/><rect class="cls-1" x="369.67" y="248.1" width="20.85" height="20.85"/><rect class="cls-1" x="402.61" y="248.1" width="20.85" height="20.85"/><rect class="cls-1" x="434.55" y="248.1" width="14.72" height="20.85"/><rect class="cls-1" x="113.05" y="248.1" width="13.81" height="20.85"/><polyline class="cls-1" points="92.45 319.94 92.45 231.85 471.09 231.85 471.09 319.94"/><polyline class="cls-2" points="157.8 322.37 157.8 332.79 113.05 332.79 113.05 322.37"/><polyline class="cls-2" points="190.74 322.37 190.74 332.79 169.89 332.79 169.89 322.37"/><polyline class="cls-2" points="223.69 322.37 223.69 332.79 202.84 332.79 202.84 322.37"/><polyline class="cls-2" points="256.64 322.37 256.64 332.79 235.78 332.79 235.78 322.37"/><polyline class="cls-2" points="289.58 322.37 289.58 332.79 268.73 332.79 268.73 322.37"/><polyline class="cls-2" points="322.53 322.37 322.53 332.79 301.68 332.79 301.68 322.37"/><polyline class="cls-2" points="355.47 322.37 355.47 332.79 334.62 332.79 334.62 322.37"/><polyline class="cls-2" points="388.42 322.37 388.42 332.79 367.57 332.79 367.57 322.37"/><polyline class="cls-2" points="448.5 322.37 448.5 332.79 401.86 332.79 401.86 322.37"/><path class="cls-2" d="M396.49,138.11V108a38.06,38.06,0,0,1,76.11,0v30.09"/><path class="cls-2" d="M438.55,100.38v7.07a4,4,0,1,1-8,0v-7.07"/><path class="cls-1" d="M993.71,64c-11.79,0-11.13,29.1-5.25,33.41-.66,42.75-3,287.84-3.21,306.33-.13,10.65,18.88,12.1,18.67-1.07-.07-19.55-4.07-265-5-305.19C1005,92.66,1005.49,64,993.71,64Z"/><path class="cls-2" d="M781.28,203.51V169.89a44.3,44.3,0,0,0-33.39-43.12,13.48,13.48,0,0,0-26.49,0A44.29,44.29,0,0,0,688,169.89v39.26a10.56,10.56,0,0,0,1.19,21h0c.22,0,.44,0,.66,0l29.87-1.85a14.94,14.94,0,0,0,29.88-.56c0-.44-.09-.85-.13-1.28l31.26-1.94a10.56,10.56,0,0,0,.54-21Z"/><path class="cls-1" d="M688,179.28v29.87a10.56,10.56,0,0,0,1.19,21c.22,0,.44,0,.66,0l29.87-1.85a14.94,14.94,0,0,0,29.88-.56c0-.44-.09-.85-.13-1.28l31.26-1.94a10.56,10.56,0,0,0,.54-21V179.28"/><path class="cls-2" d="M1135.29,410.45H1041a12,12,0,0,1-12-12V260.1h118.28V398.45A12,12,0,0,1,1135.29,410.45Z"/><path class="cls-2" d="M1148.21,282.4H1166a21.2,21.2,0,0,1,21.13,21.14v51.82A21.19,21.19,0,0,1,1166,376.49h-17.76"/><path class="cls-2" d="M1128.25,402.86h-80.2c-5.62,0-10.21-4.33-10.21-9.62V282.4c19.74,0,20.84-6.27,50.31,0s33.52,0,50.31,0V393.24C1138.46,398.53,1133.87,402.86,1128.25,402.86Z"/><path class="cls-1" d="M1029,335.28V260.1h118.28v75.18"/><path class="cls-1" d="M1138.46,335.28v58c0,5.29-4.59,9.62-10.21,9.62h-80.2c-5.62,0-10.21-4.33-10.21-9.62v-58"/><path class="cls-1" d="M1148.21,282.4H1166a21.2,21.2,0,0,1,21.13,21.14v31.74"/><path class="cls-2" d="M986.94,243.82c-.75,74.36-1.48,150-1.6,159.91-.14,10.65,18.87,12.1,18.66-1.07,0-10.43-1.19-85.16-2.39-158.71"/><rect class="cls-3" x="2.58" y="127.49" width="22.34" height="28.2"/><polygon class="cls-4" points="51.32 166.49 85.1 166.49 85.1 163.89 51.32 163.89 51.32 127.51 85.1 127.51 85.1 124.91 48.72 124.91 48.72 179.28 51.32 179.28 51.32 166.49"/><polygon class="cls-4" points="110.82 124.91 100.43 124.91 100.43 127.51 108.22 127.51 108.22 179.28 110.82 179.28 110.82 124.91"/><polygon class="cls-4" points="136.54 124.91 126.15 124.91 126.15 127.51 133.95 127.51 133.95 179.28 136.54 179.28 136.54 124.91"/><polygon class="cls-4" points="213.39 127.51 248.47 127.51 222.58 179.28 225.18 179.28 249.77 130.1 249.77 179.28 252.37 179.28 252.37 124.91 210.79 124.91 210.79 179.28 213.39 179.28 213.39 127.51"/><polygon class="cls-4" points="270.29 127.51 301.48 127.51 301.48 156.09 289.88 179.28 292.48 179.28 304.08 156.09 304.08 124.91 267.69 124.91 267.69 179.28 270.29 179.28 270.29 127.51"/><polygon class="cls-4" points="319.01 166.49 352.8 166.49 352.8 163.89 319.01 163.89 319.01 127.51 352.8 127.51 352.8 124.91 316.41 124.91 316.41 179.28 319.01 179.28 319.01 166.49"/><polygon class="cls-4" points="176.88 163.89 196.34 124.95 193.27 124.95 173.8 163.89 181.49 179.28 184.57 179.28 176.88 163.89"/><path class="cls-4" d="M2.58,158.26h29.6v21h2.57v-23.6H27.5V124.91H0v54.37H2.58Zm0-30.77H24.92v28.19H2.58Z"/><polygon class="cls-5" points="85.1 202.87 85.1 200.27 51.32 200.27 51.32 179.28 48.72 179.28 48.72 202.87 85.1 202.87"/><rect class="cls-5" x="108.22" y="179.28" width="2.6" height="23.59"/><rect class="cls-5" x="133.95" y="179.28" width="2.6" height="23.59"/><polygon class="cls-5" points="252.37 202.87 252.37 179.28 249.77 179.28 249.77 200.27 214.69 200.27 225.18 179.28 222.58 179.28 213.39 197.67 213.39 179.28 210.79 179.28 210.79 202.87 252.37 202.87"/><polygon class="cls-5" points="280.69 202.87 292.48 179.28 289.88 179.28 279.39 200.27 270.29 200.27 270.29 179.28 267.69 179.28 267.69 202.87 280.69 202.87"/><polygon class="cls-5" points="352.8 202.87 352.8 200.27 319.01 200.27 319.01 179.28 316.41 179.28 316.41 202.87 352.8 202.87"/><polygon class="cls-5" points="196.34 202.82 184.57 179.28 181.49 179.28 193.27 202.82 196.34 202.82"/><polygon class="cls-5" points="0.08 202.87 2.58 202.87 34.75 202.87 34.75 201.58 34.75 200.29 34.75 179.28 32.17 179.28 32.17 200.29 2.58 200.29 2.58 179.28 0 179.28 0 202.87 0.08 202.87"/></g></g></svg>