<?xml version="1.0" encoding="utf-8"?>
<!-- Generator: Adobe Illustrator 23.0.1, SVG Export Plug-In . SVG Version: 6.00 Build 0)  -->
<svg version="1.1" id="Layer_1" xmlns="http://www.w3.org/2000/svg" xmlns:xlink="http://www.w3.org/1999/xlink" x="0px" y="0px"
	 viewBox="0 0 360 116.84" style="enable-background:new 0 0 360 116.84;" xml:space="preserve">
<style type="text/css">
	.st0{fill:none;}
	.st1{fill:#00C08B;}
	.st2{fill:#323E48;}
</style>
<g>
	<rect x="27.37" y="55.43" class="st0" width="26.09" height="18.52"/>
	<polygon class="st0" points="223.57,73.95 245.24,73.95 245.24,30.61 	"/>
	<polygon class="st0" points="290.82,28.32 263.33,28.32 263.33,73.95 280.6,73.95 290.82,53.52 	"/>
	<polygon class="st0" points="213.18,28.32 213.18,73.95 221.28,73.95 244.1,28.32 	"/>
	<rect x="27.37" y="28.3" class="st0" width="19.69" height="24.85"/>
	<polygon class="st1" points="70.33,62.68 100.11,62.68 100.11,60.39 70.33,60.39 70.33,28.32 100.11,28.32 100.11,26.03 
		68.04,26.03 68.04,73.95 70.33,73.95 	"/>
	<polygon class="st1" points="122.78,26.03 113.62,26.03 113.62,28.32 120.49,28.32 120.49,73.95 122.78,73.95 	"/>
	<polygon class="st1" points="145.45,26.03 136.29,26.03 136.29,28.32 143.16,28.32 143.16,73.95 145.45,73.95 	"/>
	<polygon class="st1" points="213.18,28.32 244.1,28.32 221.28,73.95 223.57,73.95 245.24,30.61 245.24,73.95 247.53,73.95 
		247.53,26.03 210.89,26.03 210.89,73.95 213.18,73.95 	"/>
	<polygon class="st1" points="263.33,28.32 290.82,28.32 290.82,53.52 280.6,73.95 282.89,73.95 293.11,53.52 293.11,26.03 
		261.04,26.03 261.04,73.95 263.33,73.95 	"/>
	<polygon class="st1" points="306.28,62.68 336.05,62.68 336.05,60.39 306.28,60.39 306.28,28.32 336.05,28.32 336.05,26.03 
		303.99,26.03 303.99,73.95 306.28,73.95 	"/>
	<polygon class="st1" points="181,60.39 198.16,26.07 195.44,26.07 178.28,60.39 185.07,73.95 187.78,73.95 	"/>
	<path class="st1" d="M27.37,55.43h26.09v18.52h2.27V55.43v-2.11v-0.17h-6.4V28.3v-2.27h-2.27H27.37h-2.2H25.1v47.92h2.27V55.43z
		 M27.37,28.3h19.69v24.85H27.37V28.3z"/>
	<polygon class="st2" points="100.11,94.74 100.11,92.45 70.33,92.45 70.33,73.95 68.04,73.95 68.04,94.74 	"/>
	<rect x="120.49" y="73.95" class="st2" width="2.29" height="20.79"/>
	<rect x="143.16" y="73.95" class="st2" width="2.29" height="20.79"/>
	<polygon class="st2" points="247.53,94.74 247.53,73.95 245.24,73.95 245.24,92.45 214.32,92.45 223.57,73.95 221.28,73.95 
		213.18,90.16 213.18,73.95 210.89,73.95 210.89,94.74 	"/>
	<polygon class="st2" points="272.5,94.74 282.89,73.95 280.6,73.95 271.35,92.45 263.33,92.45 263.33,73.95 261.04,73.95 
		261.04,94.74 	"/>
	<polygon class="st2" points="336.05,94.74 336.05,92.45 306.28,92.45 306.28,73.95 303.99,73.95 303.99,94.74 	"/>
	<polygon class="st2" points="198.16,94.7 187.78,73.95 185.07,73.95 195.44,94.7 	"/>
	<polygon class="st2" points="25.17,94.74 27.37,94.74 55.73,94.74 55.73,93.61 55.73,92.47 55.73,73.95 53.46,73.95 53.46,92.47 
		27.37,92.47 27.37,73.95 25.1,73.95 25.1,94.74 	"/>
</g>
</svg>
